<svg width="901" height="236" viewBox="0 0 901 236" fill="none" xmlns="http://www.w3.org/2000/svg">
<path d="M85.0001 2.70003C74.1001 4.70003 64.6001 7.80002 55.5001 12.2C46.0001 16.7 45.0001 17.3 38.5001 22.4C20.2001 36.8 9.20006 55.4 2.50006 83.7C0.200058 93.3 0.100058 129.8 2.40006 139.3C3.20006 142.7 4.20006 147.1 4.50006 149C5.30006 152.7 8.50006 163 9.90006 165.8C10.3001 166.7 11.8001 169.7 13.1001 172.5C19.4001 185.4 31.0001 198.9 42.5001 206.5C57.3001 216.3 73.4001 221.4 94.7001 223.2C109.7 224.5 129.8 223.2 139 220.4C146.5 218.1 155.3 214.8 156.5 213.8C158.4 212.1 160.3 213.3 169.8 221.8C183.1 233.9 187.1 236.4 192.7 235.7C198 235.1 203.5 231.1 206.7 225.4C211.2 217.5 209.5 213.5 196.6 201.6C191.9 197.3 188 192.9 188 192C188 191.1 189 189.2 190.1 187.9C195.1 182.3 202.7 168.9 207.5 157.5C214.7 140.1 217.9 109.9 214.6 91.4C213.8 87 212.9 81.4 212.5 78.8C212.2 76.2 211.5 73.8 211.1 73.5C210.6 73.3 209.9 71.3 209.6 69.3C209.2 67.2 206.4 60.5 203.4 54.5C195 37.5 183.2 24.9 166.8 15.5C162.6 13 158.8 11 158.4 11C158.1 11 156.4 10.4 154.7 9.60002C137.7 2.10002 105 -1.19998 85.0001 2.70003ZM123.9 42.1C144.4 46.7 159.7 63.9 165 88.5C167.2 98.4 167.4 120.1 165.5 131C162.7 147.1 157.4 160 153.6 160C152.4 159.9 148 156.6 143.1 152C132.8 142.3 128 140.1 121.1 141.9C118.1 142.7 115.1 144.5 112.5 147.1C108.6 150.9 108.5 151.2 108.5 157.8V164.5L116.9 172.7C121.5 177.2 125 181.4 124.8 182.2C124.1 184.2 116.4 185.2 104.8 184.6C88.0001 183.9 78.1001 179.9 68.1001 170C62.2001 164.2 59.4001 159.9 55.1001 150C48.6001 135.1 47.2001 102.4 52.3001 83C56.4001 67.3 67.5001 53 80.5001 46.5C92.7001 40.5 109.2 38.8 123.9 42.1Z" fill="#EB008D"/>
<path d="M436.492 2.53728C410.692 7.43729 389.792 18.8373 375.992 35.5373C369.392 43.5373 363.592 53.1373 360.492 61.3373C359.292 64.6373 357.892 68.0373 357.492 68.9373C356.992 69.8373 356.292 72.3373 355.992 74.4373C355.592 76.6373 354.592 80.5373 353.692 83.3373C351.292 90.6373 351.492 130.137 353.992 140.837C358.992 162.637 365.892 178.037 375.792 189.837C382.292 197.637 391.792 206.037 396.992 208.537C398.692 209.337 401.792 210.937 403.992 212.037C410.192 215.337 417.092 217.737 427.992 220.537C437.092 222.937 439.692 223.137 457.992 223.137C469.092 223.137 479.992 222.637 482.492 222.037C494.192 219.137 498.492 217.837 504.192 215.337C511.492 212.137 510.092 211.537 523.392 223.737C536.992 236.137 541.492 237.937 549.292 233.937C556.992 229.937 561.892 220.737 559.592 214.537C558.992 213.137 554.292 207.737 548.992 202.737C543.692 197.537 539.492 192.737 539.492 191.637C539.492 190.137 542.792 185.137 548.392 178.237C548.892 177.637 550.892 174.037 552.892 170.237C562.592 151.237 566.892 132.737 566.892 109.837C566.992 84.0373 561.392 63.4373 549.092 44.3373C545.892 39.3373 531.392 24.0373 526.392 20.3373C523.492 18.1373 510.292 10.8373 509.292 10.8373C508.792 10.8373 507.092 10.2373 505.692 9.43729C492.392 2.33728 456.392 -1.26271 436.492 2.53728ZM470.792 41.2373C486.492 43.8373 499.092 52.1373 507.492 65.5373C509.692 68.9373 511.492 72.3373 511.492 73.0373C511.592 73.7373 512.392 76.1373 513.492 78.3373C514.592 80.5373 515.492 83.4373 515.492 84.8373C515.492 86.2373 516.192 90.0373 516.992 93.3373C520.792 109.137 517.392 137.737 509.792 154.537C506.492 161.737 504.892 161.537 494.992 152.237C485.192 143.037 482.392 141.437 475.892 141.437C467.592 141.437 459.892 148.037 459.392 155.837C458.892 163.437 459.292 164.137 467.392 171.837C471.792 175.937 475.492 180.237 475.692 181.337C475.992 183.137 475.192 183.437 468.192 184.237C459.692 185.237 444.392 184.037 438.492 181.837C423.892 176.537 411.892 165.037 406.992 151.737C402.192 138.737 401.292 133.537 400.792 114.737C400.292 97.9373 400.492 95.4373 402.492 87.2373C403.692 82.3373 405.492 76.5373 406.492 74.3373C407.492 72.1373 408.492 69.6373 408.892 68.8373C411.792 61.6373 424.892 48.8373 432.492 45.8373C433.892 45.2373 435.892 44.3373 436.892 43.7373C439.192 42.4373 452.192 40.1373 457.992 39.9373C460.192 39.9373 465.992 40.5373 470.792 41.2373Z" fill="#EB008D"/>
<path d="M619.647 2.33767C613.447 5.53767 609.247 11.0377 607.747 17.9377C606.647 22.7377 606.747 24.2377 608.147 28.4377C610.047 34.0377 611.547 36.0377 617.647 40.8377C621.647 43.9377 622.647 44.2377 628.647 44.2377C643.547 44.1377 653.147 32.6377 650.847 17.7377C649.847 11.2377 644.847 5.23767 638.047 2.23767C631.247 -0.762329 625.547 -0.762329 619.647 2.33767Z" fill="#EB008D"/>
<path d="M579.481 2.09999C575.981 2.89998 573.481 4.29999 570.381 7.29999C566.681 10.9 565.981 12.1 565.381 16.9C565.081 19.9 564.881 64.5 565.081 115.9L565.381 209.4L568.181 213.1C573.081 219.4 577.181 221.3 586.381 221.3C593.681 221.3 594.781 221 598.881 218.2C601.381 216.5 604.281 213.4 605.381 211.3C607.381 207.6 607.381 205.6 607.381 111.9V16.3L604.981 11.8C601.981 6.19998 597.781 3.39998 590.281 1.99998C587.081 1.39998 584.481 0.999985 584.481 0.999985C584.381 1.09999 582.181 1.59999 579.481 2.09999Z" fill="#EB008D"/>
<path d="M777.7 3.48642C771.7 4.68642 767.7 7.58643 764.5 12.9864L762 17.2864V113.086L762.1 208.886L764.4 212.886C765.6 215.086 768.6 218.186 771.1 219.886C775 222.486 776.3 222.886 783 222.886C791.8 222.886 796.8 220.586 800.7 214.886C803.9 210.086 805 202.786 805 184.786V169.586L807.8 166.786C813.6 160.686 818.2 157.286 819.8 157.586C821.2 157.886 832.8 173.186 845.8 191.886C848.4 195.586 853.3 202.586 858.4 209.886C865.6 219.986 872 223.886 880.9 223.186C892.4 222.386 900.5 213.486 900.4 201.886C900.4 194.786 898.6 191.086 889.3 178.886C888.8 178.286 884.9 172.986 880.5 167.086C876.1 161.086 868.2 150.586 862.9 143.586C857.7 136.586 853.1 130.086 852.7 129.086C852.2 127.786 854.5 124.786 861.9 117.086C887.4 90.4864 890 87.1864 890 80.5864C890 73.0864 883 64.8864 874.1 61.8864C869.2 60.2864 868.7 60.2864 864.1 61.9864C858.6 63.8864 855.2 66.8864 843 80.2864C838.3 85.3864 833.2 91.0864 831.6 92.7864C830.1 94.4864 824.3 100.986 818.7 107.086C813 113.586 807.9 118.386 806.9 118.386C805.2 118.386 805.1 115.586 804.7 68.0864C804.5 40.4864 804 16.6864 803.5 15.1864C801.2 6.78642 789.1 1.28642 777.7 3.48642Z" fill="#EB008D"/>
<path d="M271.001 61.35C259.401 63.05 253.901 64.75 243.401 69.95C235.401 73.85 224.801 82.75 219.201 90.25C215.301 95.45 208.201 110.95 207.001 117.25C206.301 120.55 205.401 125.05 204.901 127.25C204.501 129.45 204.101 136.05 204.001 141.95C203.901 175.55 217.801 201.65 242.301 213.65C257.101 220.85 275.601 223.85 294.201 221.95C325.401 218.85 344.501 206.15 356.001 181.15C358.201 176.45 360.001 171.55 360.001 170.25C360.001 169.05 360.701 166.05 361.601 163.65C363.901 157.35 363.901 125.85 361.601 120.55C360.701 118.45 360.001 115.85 360.001 114.75C360.001 112.75 358.201 108.15 354.201 99.75C350.901 92.85 343.101 83.15 336.801 78.15C325.001 68.55 313.701 63.95 295.701 61.35C283.401 59.55 283.701 59.55 271.001 61.35ZM299.601 95.95C305.401 98.75 312.501 106.65 315.401 113.25C317.601 118.05 321.001 135.35 321.001 141.25C321.001 146.35 317.801 164.15 316.501 166.25C315.901 167.35 315.001 169.55 314.601 171.05C314.201 172.65 310.901 176.85 307.201 180.55C299.601 188.05 293.501 190.75 283.901 190.75C269.001 190.75 257.001 181.55 251.001 165.45C246.601 153.65 246.701 126.95 251.201 116.25C256.101 104.45 265.101 95.55 274.001 93.65C280.701 92.15 294.601 93.45 299.601 95.95Z" fill="#EB008D"/>
<path d="M620.747 61.1377C615.347 62.9377 613.747 64.0377 611.247 67.6377L608.247 72.0377V140.138V208.338L611.047 212.938C614.747 219.138 619.647 221.338 629.747 221.338C639.747 221.238 644.747 218.638 648.347 211.338L650.847 206.238L650.547 139.238L650.247 72.3377L647.647 68.3377C644.047 62.8377 643.147 62.2377 636.147 60.4377C628.447 58.4377 628.647 58.4377 620.747 61.1377Z" fill="#EB008D"/>
<path d="M697.646 59.898C668.846 64.098 649.346 77.498 638.346 100.398C633.746 109.998 631.846 117.498 630.546 129.898C629.346 141.398 630.246 162.498 632.046 166.898C632.746 168.498 633.646 171.498 634.046 173.598C634.946 178.298 640.646 189.398 645.346 195.298C653.946 206.098 667.446 214.398 683.446 218.598C690.746 220.498 694.646 220.798 707.646 220.798C728.446 220.698 738.746 217.998 752.646 208.898C767.146 199.298 773.746 187.698 772.846 173.298C772.746 171.798 770.946 168.798 768.946 166.398C765.846 163.098 764.046 161.998 759.646 160.998C754.946 159.898 753.446 159.898 749.546 161.298C744.546 162.998 741.046 165.498 738.546 169.098C734.446 174.998 727.946 181.598 723.746 184.098C719.546 186.598 718.246 186.798 708.646 186.798C699.246 186.798 697.546 186.498 693.046 184.098C679.246 176.998 672.646 163.498 672.646 142.098C672.646 118.998 680.946 102.298 695.646 95.498C703.146 92.098 715.846 91.998 722.846 95.298C727.746 97.498 735.446 104.498 738.246 109.298C739.146 110.698 741.446 113.198 743.446 114.698C746.846 117.398 747.646 117.498 754.646 117.198C760.746 116.898 762.746 116.398 765.446 114.398C770.946 110.298 773.046 105.998 772.946 98.998C772.646 74.198 734.746 54.498 697.646 59.898Z" fill="#EB008D"/>
</svg>
