<svg width="134" height="45" viewBox="0 0 134 45" fill="none" xmlns="http://www.w3.org/2000/svg">
<path d="M14.9208 0.743531C5.74563 2.74782 0 10.6314 0 21.2318C0.0445398 31.6987 4.54306 38.736 12.9165 41.3193C16.9696 42.5664 23.6952 42.5664 27.3474 41.3193C28.8172 40.7848 30.0643 40.3839 30.1089 40.3839C30.198 40.3839 31.2669 41.2747 32.4695 42.3437C33.6721 43.4126 35.0973 44.437 35.5873 44.6152C36.7898 44.9715 38.1706 44.2143 38.9723 42.6109C39.774 41.052 39.5513 40.3839 37.2352 38.2015C36.3444 37.3552 35.6318 36.4644 35.6318 36.2417C35.6318 36.0636 36.1217 35.2173 36.7453 34.4156C38.4378 32.1886 39.9522 28.0909 40.5312 24.0824C41.5556 16.956 39.195 9.5624 34.4738 5.24205C30.9551 2.03518 27.2583 0.698992 21.3791 0.476293C18.7958 0.387213 15.9007 0.520833 14.9208 0.743531ZM25.4322 8.80523C27.7037 9.91872 30.0643 12.8583 30.777 15.3526C32.1577 20.0292 30.9997 30.1398 29.129 30.1398C28.7727 30.1398 27.7037 29.3826 26.6793 28.4918C24.675 26.6657 22.8489 26.3984 21.3791 27.6901C19.9538 28.9817 20.2211 31.0306 22.0472 32.8122C22.8934 33.6139 23.4725 34.4601 23.3388 34.6828C22.8934 35.3509 17.9495 35.0392 15.9452 34.1929C11.4913 32.2777 9.75421 29.1154 9.44243 22.2117C9.30881 18.6931 9.44243 17.1342 10.0214 15.3526C10.9122 12.5911 12.9165 9.91872 14.7872 8.93885C17.8604 7.37996 22.448 7.29088 25.4322 8.80523Z" fill="#EB008D"/>
<path d="M80.3051 0.682455C71.3526 2.46405 65.4734 10.5703 65.4734 21.0371C65.5179 29.7224 69.0366 36.8933 74.7377 39.8774C79.548 42.3717 87.7878 42.9952 92.8208 41.2582C94.2906 40.7237 95.5377 40.3228 95.5823 40.3228C95.6713 40.3228 96.7403 41.2136 97.9429 42.2826C99.1455 43.3515 100.571 44.376 101.105 44.5541C102.397 44.955 104 43.7969 104.624 42.1044C105.069 40.7682 104.98 40.5901 103.109 38.5858C101.996 37.3832 101.105 36.3143 101.105 36.1806C101.105 36.047 101.684 35.0226 102.397 33.9982C105.782 29.0097 106.94 21.8388 105.515 15.0243C104.045 7.76428 98.2101 2.06319 90.8611 0.682455C88.1441 0.147978 82.9775 0.192518 80.3051 0.682455ZM89.9257 8.34329C95.4487 10.0358 98.4328 18.3647 96.3394 26.2483C95.226 30.3905 94.5133 30.7913 92.2418 28.5643C90.2375 26.6046 88.3668 26.2483 86.8525 27.629C85.4272 28.9207 85.6944 30.9695 87.5206 32.7511C88.3668 33.5528 88.9458 34.3991 88.8122 34.6218C88.6786 34.7999 87.387 34.9781 85.9171 34.9781C80.6614 34.9781 77.0092 32.2611 75.4503 27.1391C74.604 24.2885 74.6486 17.8303 75.5394 15.0243C77.5437 8.83323 83.1111 6.24993 89.9257 8.34329Z" fill="#EB008D"/>
<path d="M50.7593 11.5243C45.9045 12.2815 41.1388 16.1564 39.5799 20.6995C38.5109 23.8173 38.4664 29.3402 39.4908 32.6807C40.5152 35.9766 43.4548 39.2726 46.6171 40.6533C51.6056 42.8357 58.9992 42.2122 63.3196 39.2726C69.2879 35.1304 70.6241 23.8618 65.9474 17.0918C64.6112 15.1766 62.3842 13.484 59.89 12.4151C58.1975 11.747 52.9418 11.2125 50.7593 11.5243ZM57.084 18.3834C59.4001 19.8087 60.5136 22.4365 60.5136 26.6233C60.5136 31.9235 58.9101 34.6404 55.1242 35.7539C53.4317 36.2884 53.0754 36.2439 51.1157 35.264C48.087 33.7496 46.9735 31.4336 46.9735 26.6233C46.9735 22.3029 47.9979 19.7196 50.1803 18.3834C52.0955 17.2254 55.2133 17.2254 57.084 18.3834Z" fill="#EB008D"/>
<path d="M115.523 11.6419C113.43 12.0428 110.089 13.5126 108.842 14.6706C103.052 19.8372 102.072 29.6805 106.704 36.4951C107.951 38.3658 108.887 39.1675 111.203 40.281C113.964 41.6617 114.454 41.7508 118.863 41.7508C123.273 41.7508 123.763 41.6617 126.524 40.281C130.087 38.5439 131.869 36.3615 133.116 32.2193C135.655 24.024 132.582 15.8287 125.723 12.7554C123.228 11.6419 118.374 11.1074 115.523 11.6419ZM122.293 18.3674C124.609 19.7481 125.723 22.4205 125.723 26.6073C125.723 30.794 124.609 33.4664 122.338 34.8471C119.932 36.2724 118.596 36.3615 116.28 35.2034C113.162 33.6891 112.182 31.6848 112.182 26.6964C112.182 22.1533 113.118 19.7927 115.434 18.3674C117.305 17.2094 120.422 17.2094 122.293 18.3674Z" fill="#EB008D"/>
</svg>
